# xmcd
#
# Track frame offsets:
#	150
#	38005
#	57336
#	92069
#	111410
#	146866
#	172383
#	188564
#	208793
#	244828
#	272614
#	296533
#
# Disc length: 4466 seconds
#
# Revision: 1
# Processed by: cddbd v1.5.1PL0 Copyright (c) Steve Scherf et al.
# Submitted via: CDmax 2.0
#
DISCID=bb11700c
DTITLE=Hot Tuna w/ Barry Mitterhoff - Newburyport High School, Newburyport, M
DTITLE=A, 2004-07-19 - d1
DYEAR=2004
DGENRE=Blues
TTITLE0=I Know You Rider
TTITLE1=Waiting For A Train
TTITLE2=Death Don't Have No Mercy
TTITLE3=Do Not Go Gentle
TTITLE4=Serpent Of Dreams
TTITLE5=Heart Temporary
TTITLE6=I'll Let You Know Before I Leave
TTITLE7=Blues Stay Away From Me
TTITLE8=Breadline Blues
TTITLE9=Embryonic Journey
TTITLE10=Red River Blues
TTITLE11=Blue Railroad Train
EXTD=Acoustic Hot Tuna with Barry Mitterhoff\nNewburyport High School\nNewbur
EXTD=yport, MA\n2004-07-19\n\n\nDFC FOB 8ft from stage\n\nSource: matched Okt
EXTD=ava MC012 (Cards DIN)> Edirol UA-5 (Oade Transparent Plus mod)>Nomad JB
EXTD=3 (optical in) .wav @44.1 \n\nLineage: JB3>firewire>pc .wav normalized w
EXTD=ith Cool Edit Pro>Cdwave>Flac Frontend 1.7.1>Flac\n\nTaped and Transfere
EXTD=d by Jason Adler jason@galactic-trading.com\n\n\nDisc 1\nSet 1\n\n1 I Kn
EXTD=ow You Rider\n2 Waiting For A Train\n3 Death Don't Have No Mercy\n4 Do N
EXTD=ot Go Gentle\n5 Serpent Of Dreams\n6 Heart Temporary\n7 I'll Let You Kno
EXTD=w Before I Leave\n8 Blues Stay Away From Me\n9 Breadline Blues\n10 Embry
EXTD=onic Journey\n11 Red River Blues\nSet 2\n12 Blue Railroad Train\n\nDis
EXTD=c 2\n\n1 How Long Blues\n2 Another Man Done Gone>Keep Your Lamps Trimme
EXTD=d And Burning\n3 I See The Light\n4 Genesis\n5 Tom Cat Blues\n6 Living I
EXTD=n The Moment\n7 Good Shepherd\n8 I Am The Light Of This World\n9 Just Be
EXTD=cause\n10 Hesitation Blues
EXTT0=
EXTT1=
EXTT2=
EXTT3=
EXTT4=
EXTT5=
EXTT6=
EXTT7=
EXTT8=
EXTT9=
EXTT10=
EXTT11=
PLAYORDER=
